<mxfile host="Electron" modified="2024-04-21T06:11:09.039Z" agent="Mozilla/5.0 (Windows NT 10.0; Win64; x64) AppleWebKit/537.36 (KHTML, like Gecko) draw.io/24.2.5 Chrome/120.0.6099.109 Electron/28.1.0 Safari/537.36" etag="AkiQom8k4H_aw0oyzWCR" version="24.2.5" type="device">
  <diagram name="PÃ¡gina-1" id="oj6XEMpDZWdtKFhk7QhF">
    <mxGraphModel dx="420" dy="268" grid="1" gridSize="10" guides="1" tooltips="1" connect="1" arrows="1" fold="1" page="1" pageScale="1" pageWidth="827" pageHeight="1169" math="0" shadow="0">
      <root>
        <mxCell id="0" />
        <mxCell id="1" parent="0" />
        <mxCell id="L3g9fGt4dDBIAl1mSf-G-1" value="elem" style="whiteSpace=wrap;html=1;aspect=fixed;labelBackgroundColor=none;fillColor=#FFE45E;strokeColor=#FF6392;fontColor=#5AA9E6;" vertex="1" parent="1">
          <mxGeometry x="240" y="240" width="40" height="40" as="geometry" />
        </mxCell>
        <mxCell id="L3g9fGt4dDBIAl1mSf-G-2" value="elem" style="whiteSpace=wrap;html=1;aspect=fixed;labelBackgroundColor=none;fillColor=#FFE45E;strokeColor=#FF6392;fontColor=#5AA9E6;" vertex="1" parent="1">
          <mxGeometry x="320" y="240" width="40" height="40" as="geometry" />
        </mxCell>
        <mxCell id="L3g9fGt4dDBIAl1mSf-G-3" value="elem" style="whiteSpace=wrap;html=1;aspect=fixed;labelBackgroundColor=none;fillColor=#FFE45E;strokeColor=#FF6392;fontColor=#5AA9E6;" vertex="1" parent="1">
          <mxGeometry x="400" y="240" width="40" height="40" as="geometry" />
        </mxCell>
        <mxCell id="L3g9fGt4dDBIAl1mSf-G-5" value="" style="endArrow=classic;html=1;rounded=0;labelBackgroundColor=none;strokeColor=#FF6392;fontColor=default;" edge="1" parent="1">
          <mxGeometry width="50" height="50" relative="1" as="geometry">
            <mxPoint x="280" y="259.86" as="sourcePoint" />
            <mxPoint x="320" y="259.86" as="targetPoint" />
          </mxGeometry>
        </mxCell>
        <mxCell id="L3g9fGt4dDBIAl1mSf-G-7" value="" style="endArrow=classic;html=1;rounded=0;labelBackgroundColor=none;strokeColor=#FF6392;fontColor=default;" edge="1" parent="1">
          <mxGeometry width="50" height="50" relative="1" as="geometry">
            <mxPoint x="360" y="259.86" as="sourcePoint" />
            <mxPoint x="400" y="259.86" as="targetPoint" />
          </mxGeometry>
        </mxCell>
        <mxCell id="L3g9fGt4dDBIAl1mSf-G-8" value="" style="endArrow=classic;html=1;rounded=0;labelBackgroundColor=none;strokeColor=#FF6392;fontColor=default;" edge="1" parent="1">
          <mxGeometry width="50" height="50" relative="1" as="geometry">
            <mxPoint x="440" y="259.8" as="sourcePoint" />
            <mxPoint x="480" y="259.8" as="targetPoint" />
          </mxGeometry>
        </mxCell>
        <mxCell id="L3g9fGt4dDBIAl1mSf-G-9" value="........." style="text;html=1;align=center;verticalAlign=middle;resizable=0;points=[];autosize=1;strokeColor=none;fillColor=none;fontColor=#5AA9E6;" vertex="1" parent="1">
          <mxGeometry x="485" y="245" width="50" height="30" as="geometry" />
        </mxCell>
      </root>
    </mxGraphModel>
  </diagram>
</mxfile>
